<svg xmlns="http://www.w3.org/2000/svg" version="1.1" xmlns:xlink="http://www.w3.org/1999/xlink" xmlns:svgjs="http://svgjs.dev/svgjs" width="2000" height="1247" viewBox="0 0 2000 1247"><g transform="matrix(1,0,0,1,-1.2121212121212466,0.504858299595071)"><svg viewBox="0 0 396 247" data-background-color="#ffffff" preserveAspectRatio="xMidYMid meet" height="1247" width="2000" xmlns="http://www.w3.org/2000/svg" xmlns:xlink="http://www.w3.org/1999/xlink"><g id="tight-bounds" transform="matrix(1,0,0,1,0.2400000000000091,-0.09999999999999432)"><svg viewBox="0 0 395.52 247.2" height="247.2" width="395.52"><g><svg></svg></g><g><svg viewBox="0 0 395.52 247.2" height="247.2" width="395.52"><g transform="matrix(1,0,0,1,155.85748114285713,47.215199999999996)"><svg viewBox="0 0 83.80503771428572 152.7696" height="152.7696" width="83.80503771428572"><g><svg viewBox="0 0 83.80503771428572 152.7696" height="152.7696" width="83.80503771428572"><g><svg viewBox="0 0 83.80503771428572 152.7696" height="152.7696" width="83.80503771428572"><g><svg viewBox="0 0 83.80503771428572 152.7696" height="152.7696" width="83.80503771428572"><g id="textblocktransform"><svg viewBox="0 0 83.80503771428572 152.7696" height="152.7696" width="83.80503771428572" id="textblock"><g><svg viewBox="0 0 83.80503771428572 152.7696" height="152.7696" width="83.80503771428572"><g transform="matrix(1,0,0,1,0,0)"><svg width="83.80503771428572" viewBox="4 -35 19.200000762939453 35" height="152.7696" data-palette-color="#915eff"><path d="M23.2-3L22.95 0 4 0 4-35 7.4-35 7.4-3 23.2-3Z" opacity="1" transform="matrix(1,0,0,1,0,0)" fill="#915eff" class="undefined-text-0" data-fill-palette-color="primary" id="text-0"></path></svg></g></svg></g></svg></g></svg></g></svg></g></svg></g></svg></g><path d="M338.159 41.215L338.159 0 90.959 0 90.959 247.2 338.159 247.2 338.159 205.985 324.382 205.985 324.382 233.423 104.736 233.423 104.736 13.777 324.382 13.777 324.382 41.215Z" fill="#915eff" stroke="transparent" data-fill-palette-color="primary"></path></svg></g><defs></defs></svg><rect width="395.52" height="247.2" fill="none" stroke="none" visibility="hidden"></rect></g></svg></g></svg>